<mxfile host="app.diagrams.net" modified="2023-07-15T08:27:45.976Z" agent="Mozilla/5.0 (Windows NT 10.0; Win64; x64; rv:109.0) Gecko/20100101 Firefox/115.0" etag="vTDsYbRHWV7PNknG-G6Z" version="21.6.2" type="device" pages="2">
  <diagram name="usecase" id="mM4lz4Pt0BhCpQb93S0E">
    <mxGraphModel dx="1059" dy="552" grid="1" gridSize="10" guides="1" tooltips="1" connect="1" arrows="1" fold="1" page="1" pageScale="1" pageWidth="850" pageHeight="1100" math="0" shadow="0">
      <root>
        <mxCell id="0" />
        <mxCell id="1" parent="0" />
        <mxCell id="bPrdrVAHnubedD4Jzo1H-1" value="ADMIN" style="shape=umlActor;verticalLabelPosition=bottom;verticalAlign=top;html=1;outlineConnect=0;" parent="1" vertex="1">
          <mxGeometry x="290" y="170" width="30" height="60" as="geometry" />
        </mxCell>
        <mxCell id="bPrdrVAHnubedD4Jzo1H-2" value="PEGAWAI" style="shape=umlActor;verticalLabelPosition=bottom;verticalAlign=top;html=1;outlineConnect=0;" parent="1" vertex="1">
          <mxGeometry x="320" y="480" width="30" height="60" as="geometry" />
        </mxCell>
        <mxCell id="bPrdrVAHnubedD4Jzo1H-5" value="" style="endArrow=none;html=1;rounded=0;exitX=0.5;exitY=0.5;exitDx=0;exitDy=0;exitPerimeter=0;entryX=0;entryY=0.5;entryDx=0;entryDy=0;" parent="1" source="bPrdrVAHnubedD4Jzo1H-1" target="bPrdrVAHnubedD4Jzo1H-6" edge="1">
          <mxGeometry width="50" height="50" relative="1" as="geometry">
            <mxPoint x="425" y="210" as="sourcePoint" />
            <mxPoint x="600" y="120" as="targetPoint" />
          </mxGeometry>
        </mxCell>
        <mxCell id="bPrdrVAHnubedD4Jzo1H-6" value="Mengelola data pegawai" style="ellipse;whiteSpace=wrap;html=1;" parent="1" vertex="1">
          <mxGeometry x="540" y="30" width="160" height="50" as="geometry" />
        </mxCell>
        <mxCell id="bPrdrVAHnubedD4Jzo1H-7" value="" style="endArrow=none;html=1;rounded=0;entryX=0;entryY=0.5;entryDx=0;entryDy=0;exitX=0.5;exitY=0.5;exitDx=0;exitDy=0;exitPerimeter=0;" parent="1" source="bPrdrVAHnubedD4Jzo1H-1" target="bPrdrVAHnubedD4Jzo1H-8" edge="1">
          <mxGeometry width="50" height="50" relative="1" as="geometry">
            <mxPoint x="420" y="290" as="sourcePoint" />
            <mxPoint x="610" y="190" as="targetPoint" />
          </mxGeometry>
        </mxCell>
        <mxCell id="bPrdrVAHnubedD4Jzo1H-8" value="Mengelola data admin" style="ellipse;whiteSpace=wrap;html=1;" parent="1" vertex="1">
          <mxGeometry x="540" y="90" width="160" height="50" as="geometry" />
        </mxCell>
        <mxCell id="bPrdrVAHnubedD4Jzo1H-9" value="" style="endArrow=none;html=1;rounded=0;exitX=0.5;exitY=0.5;exitDx=0;exitDy=0;exitPerimeter=0;entryX=0;entryY=0.5;entryDx=0;entryDy=0;" parent="1" source="bPrdrVAHnubedD4Jzo1H-1" target="bPrdrVAHnubedD4Jzo1H-10" edge="1">
          <mxGeometry width="50" height="50" relative="1" as="geometry">
            <mxPoint x="425" y="350" as="sourcePoint" />
            <mxPoint x="610" y="250" as="targetPoint" />
          </mxGeometry>
        </mxCell>
        <mxCell id="bPrdrVAHnubedD4Jzo1H-10" value="Mengelola data jabatan" style="ellipse;whiteSpace=wrap;html=1;" parent="1" vertex="1">
          <mxGeometry x="540" y="150" width="160" height="50" as="geometry" />
        </mxCell>
        <mxCell id="bPrdrVAHnubedD4Jzo1H-11" value="" style="endArrow=none;html=1;rounded=0;exitX=0.5;exitY=0.5;exitDx=0;exitDy=0;exitPerimeter=0;entryX=0;entryY=0.5;entryDx=0;entryDy=0;" parent="1" source="bPrdrVAHnubedD4Jzo1H-1" target="bPrdrVAHnubedD4Jzo1H-12" edge="1">
          <mxGeometry width="50" height="50" relative="1" as="geometry">
            <mxPoint x="415" y="350" as="sourcePoint" />
            <mxPoint x="600" y="250" as="targetPoint" />
          </mxGeometry>
        </mxCell>
        <mxCell id="bPrdrVAHnubedD4Jzo1H-12" value="Melihat Laporan absensi" style="ellipse;whiteSpace=wrap;html=1;" parent="1" vertex="1">
          <mxGeometry x="540" y="210" width="160" height="50" as="geometry" />
        </mxCell>
        <mxCell id="bPrdrVAHnubedD4Jzo1H-13" value="" style="endArrow=none;html=1;rounded=0;exitX=0.5;exitY=0.5;exitDx=0;exitDy=0;exitPerimeter=0;entryX=0;entryY=0.5;entryDx=0;entryDy=0;" parent="1" source="bPrdrVAHnubedD4Jzo1H-1" target="bPrdrVAHnubedD4Jzo1H-14" edge="1">
          <mxGeometry width="50" height="50" relative="1" as="geometry">
            <mxPoint x="420" y="400" as="sourcePoint" />
            <mxPoint x="605" y="300" as="targetPoint" />
          </mxGeometry>
        </mxCell>
        <mxCell id="bPrdrVAHnubedD4Jzo1H-14" value="Melihat laporan keterangan" style="ellipse;whiteSpace=wrap;html=1;" parent="1" vertex="1">
          <mxGeometry x="540" y="270" width="160" height="50" as="geometry" />
        </mxCell>
        <mxCell id="bPrdrVAHnubedD4Jzo1H-16" value="" style="endArrow=none;html=1;rounded=0;exitX=0.5;exitY=0.5;exitDx=0;exitDy=0;exitPerimeter=0;entryX=0;entryY=0.5;entryDx=0;entryDy=0;" parent="1" source="bPrdrVAHnubedD4Jzo1H-1" target="bPrdrVAHnubedD4Jzo1H-17" edge="1">
          <mxGeometry width="50" height="50" relative="1" as="geometry">
            <mxPoint x="415" y="440" as="sourcePoint" />
            <mxPoint x="600" y="340" as="targetPoint" />
          </mxGeometry>
        </mxCell>
        <mxCell id="bPrdrVAHnubedD4Jzo1H-17" value="Mencetak Laporan Absensi" style="ellipse;whiteSpace=wrap;html=1;" parent="1" vertex="1">
          <mxGeometry x="540" y="330" width="160" height="50" as="geometry" />
        </mxCell>
        <mxCell id="bPrdrVAHnubedD4Jzo1H-18" value="" style="endArrow=none;html=1;rounded=0;exitX=0.5;exitY=0.5;exitDx=0;exitDy=0;exitPerimeter=0;entryX=0;entryY=0.5;entryDx=0;entryDy=0;" parent="1" source="bPrdrVAHnubedD4Jzo1H-2" target="bPrdrVAHnubedD4Jzo1H-19" edge="1">
          <mxGeometry width="50" height="50" relative="1" as="geometry">
            <mxPoint x="415" y="580" as="sourcePoint" />
            <mxPoint x="600" y="480" as="targetPoint" />
          </mxGeometry>
        </mxCell>
        <mxCell id="bPrdrVAHnubedD4Jzo1H-19" value="Menginput data pegawai" style="ellipse;whiteSpace=wrap;html=1;" parent="1" vertex="1">
          <mxGeometry x="540" y="470" width="160" height="50" as="geometry" />
        </mxCell>
        <mxCell id="bPrdrVAHnubedD4Jzo1H-31" value="" style="endArrow=classic;html=1;rounded=0;exitX=1;exitY=0.5;exitDx=0;exitDy=0;entryX=1;entryY=0.5;entryDx=0;entryDy=0;" parent="1" source="bPrdrVAHnubedD4Jzo1H-19" target="bPrdrVAHnubedD4Jzo1H-6" edge="1">
          <mxGeometry width="50" height="50" relative="1" as="geometry">
            <mxPoint x="740" y="490" as="sourcePoint" />
            <mxPoint x="790" y="440" as="targetPoint" />
            <Array as="points">
              <mxPoint x="760" y="495" />
              <mxPoint x="760" y="55" />
            </Array>
          </mxGeometry>
        </mxCell>
        <mxCell id="bPrdrVAHnubedD4Jzo1H-32" value="" style="endArrow=none;html=1;rounded=0;exitX=0.5;exitY=0.5;exitDx=0;exitDy=0;exitPerimeter=0;entryX=0;entryY=0.5;entryDx=0;entryDy=0;" parent="1" source="bPrdrVAHnubedD4Jzo1H-2" target="bPrdrVAHnubedD4Jzo1H-33" edge="1">
          <mxGeometry width="50" height="50" relative="1" as="geometry">
            <mxPoint x="460" y="595" as="sourcePoint" />
            <mxPoint x="540" y="570" as="targetPoint" />
          </mxGeometry>
        </mxCell>
        <mxCell id="bPrdrVAHnubedD4Jzo1H-33" value="Mengisi Absensi" style="ellipse;whiteSpace=wrap;html=1;" parent="1" vertex="1">
          <mxGeometry x="540" y="550" width="160" height="50" as="geometry" />
        </mxCell>
        <mxCell id="bPrdrVAHnubedD4Jzo1H-34" value="" style="endArrow=classic;html=1;rounded=0;exitX=1;exitY=0.5;exitDx=0;exitDy=0;entryX=1;entryY=0.5;entryDx=0;entryDy=0;" parent="1" source="bPrdrVAHnubedD4Jzo1H-33" target="bPrdrVAHnubedD4Jzo1H-12" edge="1">
          <mxGeometry width="50" height="50" relative="1" as="geometry">
            <mxPoint x="700" y="680" as="sourcePoint" />
            <mxPoint x="700" y="240" as="targetPoint" />
            <Array as="points">
              <mxPoint x="800" y="575" />
              <mxPoint x="800" y="235" />
            </Array>
          </mxGeometry>
        </mxCell>
        <mxCell id="bPrdrVAHnubedD4Jzo1H-35" value="LOGIN" style="ellipse;whiteSpace=wrap;html=1;" parent="1" vertex="1">
          <mxGeometry x="1020" y="310" width="120" height="60" as="geometry" />
        </mxCell>
        <mxCell id="bPrdrVAHnubedD4Jzo1H-37" value="" style="endArrow=none;dashed=1;html=1;rounded=0;entryX=0;entryY=0.5;entryDx=0;entryDy=0;exitX=0.975;exitY=0.809;exitDx=0;exitDy=0;exitPerimeter=0;" parent="1" source="bPrdrVAHnubedD4Jzo1H-6" target="bPrdrVAHnubedD4Jzo1H-35" edge="1">
          <mxGeometry width="50" height="50" relative="1" as="geometry">
            <mxPoint x="660" y="330" as="sourcePoint" />
            <mxPoint x="710" y="280" as="targetPoint" />
          </mxGeometry>
        </mxCell>
        <mxCell id="bPrdrVAHnubedD4Jzo1H-38" value="&amp;lt;&amp;lt;include&amp;gt;&amp;gt;" style="edgeLabel;html=1;align=center;verticalAlign=middle;resizable=0;points=[];" parent="bPrdrVAHnubedD4Jzo1H-37" vertex="1" connectable="0">
          <mxGeometry x="0.1172" y="-1" relative="1" as="geometry">
            <mxPoint as="offset" />
          </mxGeometry>
        </mxCell>
        <mxCell id="bPrdrVAHnubedD4Jzo1H-39" value="" style="endArrow=none;dashed=1;html=1;rounded=0;entryX=0;entryY=0.5;entryDx=0;entryDy=0;exitX=1;exitY=0.5;exitDx=0;exitDy=0;" parent="1" source="bPrdrVAHnubedD4Jzo1H-8" target="bPrdrVAHnubedD4Jzo1H-35" edge="1">
          <mxGeometry width="50" height="50" relative="1" as="geometry">
            <mxPoint x="696" y="150" as="sourcePoint" />
            <mxPoint x="1000" y="400" as="targetPoint" />
          </mxGeometry>
        </mxCell>
        <mxCell id="bPrdrVAHnubedD4Jzo1H-40" value="&amp;lt;&amp;lt;include&amp;gt;&amp;gt;" style="edgeLabel;html=1;align=center;verticalAlign=middle;resizable=0;points=[];" parent="bPrdrVAHnubedD4Jzo1H-39" vertex="1" connectable="0">
          <mxGeometry x="0.1172" y="-1" relative="1" as="geometry">
            <mxPoint as="offset" />
          </mxGeometry>
        </mxCell>
        <mxCell id="bPrdrVAHnubedD4Jzo1H-41" value="" style="endArrow=none;dashed=1;html=1;rounded=0;entryX=0;entryY=0.5;entryDx=0;entryDy=0;exitX=1;exitY=0.5;exitDx=0;exitDy=0;" parent="1" source="bPrdrVAHnubedD4Jzo1H-10" target="bPrdrVAHnubedD4Jzo1H-35" edge="1">
          <mxGeometry width="50" height="50" relative="1" as="geometry">
            <mxPoint x="716" y="90" as="sourcePoint" />
            <mxPoint x="1020" y="340" as="targetPoint" />
          </mxGeometry>
        </mxCell>
        <mxCell id="bPrdrVAHnubedD4Jzo1H-42" value="&amp;lt;&amp;lt;include&amp;gt;&amp;gt;" style="edgeLabel;html=1;align=center;verticalAlign=middle;resizable=0;points=[];" parent="bPrdrVAHnubedD4Jzo1H-41" vertex="1" connectable="0">
          <mxGeometry x="0.1172" y="-1" relative="1" as="geometry">
            <mxPoint as="offset" />
          </mxGeometry>
        </mxCell>
        <mxCell id="bPrdrVAHnubedD4Jzo1H-43" value="" style="endArrow=none;dashed=1;html=1;rounded=0;exitX=1;exitY=1;exitDx=0;exitDy=0;entryX=0;entryY=0.5;entryDx=0;entryDy=0;" parent="1" source="bPrdrVAHnubedD4Jzo1H-12" target="bPrdrVAHnubedD4Jzo1H-35" edge="1">
          <mxGeometry width="50" height="50" relative="1" as="geometry">
            <mxPoint x="726" y="100" as="sourcePoint" />
            <mxPoint x="980" y="340" as="targetPoint" />
          </mxGeometry>
        </mxCell>
        <mxCell id="bPrdrVAHnubedD4Jzo1H-44" value="&amp;lt;&amp;lt;include&amp;gt;&amp;gt;" style="edgeLabel;html=1;align=center;verticalAlign=middle;resizable=0;points=[];" parent="bPrdrVAHnubedD4Jzo1H-43" vertex="1" connectable="0">
          <mxGeometry x="0.1172" y="-1" relative="1" as="geometry">
            <mxPoint as="offset" />
          </mxGeometry>
        </mxCell>
        <mxCell id="bPrdrVAHnubedD4Jzo1H-45" value="" style="endArrow=none;dashed=1;html=1;rounded=0;exitX=1;exitY=0.5;exitDx=0;exitDy=0;entryX=0;entryY=0.5;entryDx=0;entryDy=0;" parent="1" source="bPrdrVAHnubedD4Jzo1H-14" target="bPrdrVAHnubedD4Jzo1H-35" edge="1">
          <mxGeometry width="50" height="50" relative="1" as="geometry">
            <mxPoint x="736" y="110" as="sourcePoint" />
            <mxPoint x="1000" y="370" as="targetPoint" />
          </mxGeometry>
        </mxCell>
        <mxCell id="bPrdrVAHnubedD4Jzo1H-46" value="&amp;lt;&amp;lt;include&amp;gt;&amp;gt;" style="edgeLabel;html=1;align=center;verticalAlign=middle;resizable=0;points=[];" parent="bPrdrVAHnubedD4Jzo1H-45" vertex="1" connectable="0">
          <mxGeometry x="0.1172" y="-1" relative="1" as="geometry">
            <mxPoint as="offset" />
          </mxGeometry>
        </mxCell>
        <mxCell id="bPrdrVAHnubedD4Jzo1H-47" value="" style="endArrow=none;dashed=1;html=1;rounded=0;exitX=1;exitY=0.5;exitDx=0;exitDy=0;entryX=0;entryY=0.5;entryDx=0;entryDy=0;" parent="1" source="bPrdrVAHnubedD4Jzo1H-17" target="bPrdrVAHnubedD4Jzo1H-35" edge="1">
          <mxGeometry width="50" height="50" relative="1" as="geometry">
            <mxPoint x="746" y="120" as="sourcePoint" />
            <mxPoint x="1000" y="410" as="targetPoint" />
          </mxGeometry>
        </mxCell>
        <mxCell id="bPrdrVAHnubedD4Jzo1H-48" value="&amp;lt;&amp;lt;include&amp;gt;&amp;gt;" style="edgeLabel;html=1;align=center;verticalAlign=middle;resizable=0;points=[];" parent="bPrdrVAHnubedD4Jzo1H-47" vertex="1" connectable="0">
          <mxGeometry x="0.1172" y="-1" relative="1" as="geometry">
            <mxPoint as="offset" />
          </mxGeometry>
        </mxCell>
        <mxCell id="bPrdrVAHnubedD4Jzo1H-50" value="" style="endArrow=none;dashed=1;html=1;rounded=0;entryX=0;entryY=0.5;entryDx=0;entryDy=0;exitX=1;exitY=0;exitDx=0;exitDy=0;" parent="1" source="bPrdrVAHnubedD4Jzo1H-19" target="bPrdrVAHnubedD4Jzo1H-35" edge="1">
          <mxGeometry width="50" height="50" relative="1" as="geometry">
            <mxPoint x="756" y="130" as="sourcePoint" />
            <mxPoint x="1060" y="380" as="targetPoint" />
          </mxGeometry>
        </mxCell>
        <mxCell id="bPrdrVAHnubedD4Jzo1H-51" value="&amp;lt;&amp;lt;include&amp;gt;&amp;gt;" style="edgeLabel;html=1;align=center;verticalAlign=middle;resizable=0;points=[];" parent="bPrdrVAHnubedD4Jzo1H-50" vertex="1" connectable="0">
          <mxGeometry x="0.1172" y="-1" relative="1" as="geometry">
            <mxPoint as="offset" />
          </mxGeometry>
        </mxCell>
        <mxCell id="bPrdrVAHnubedD4Jzo1H-52" value="" style="endArrow=none;dashed=1;html=1;rounded=0;entryX=0;entryY=0.5;entryDx=0;entryDy=0;" parent="1" source="bPrdrVAHnubedD4Jzo1H-33" target="bPrdrVAHnubedD4Jzo1H-35" edge="1">
          <mxGeometry width="50" height="50" relative="1" as="geometry">
            <mxPoint x="766" y="140" as="sourcePoint" />
            <mxPoint x="1000" y="320" as="targetPoint" />
          </mxGeometry>
        </mxCell>
        <mxCell id="bPrdrVAHnubedD4Jzo1H-53" value="&amp;lt;&amp;lt;include&amp;gt;&amp;gt;" style="edgeLabel;html=1;align=center;verticalAlign=middle;resizable=0;points=[];" parent="bPrdrVAHnubedD4Jzo1H-52" vertex="1" connectable="0">
          <mxGeometry x="0.1172" y="-1" relative="1" as="geometry">
            <mxPoint as="offset" />
          </mxGeometry>
        </mxCell>
        <mxCell id="bPrdrVAHnubedD4Jzo1H-54" value="" style="endArrow=none;html=1;rounded=0;entryX=0.5;entryY=1;entryDx=0;entryDy=0;exitX=0.5;exitY=0;exitDx=0;exitDy=0;" parent="1" source="bPrdrVAHnubedD4Jzo1H-55" target="bPrdrVAHnubedD4Jzo1H-35" edge="1">
          <mxGeometry width="50" height="50" relative="1" as="geometry">
            <mxPoint x="1060" y="500" as="sourcePoint" />
            <mxPoint x="710" y="370" as="targetPoint" />
          </mxGeometry>
        </mxCell>
        <mxCell id="bPrdrVAHnubedD4Jzo1H-55" value="LOGOUT" style="ellipse;whiteSpace=wrap;html=1;" parent="1" vertex="1">
          <mxGeometry x="1020" y="450" width="120" height="60" as="geometry" />
        </mxCell>
        <mxCell id="YSaP_0wxnB1doKRxfrzB-2" value="&lt;div&gt;admin&lt;/div&gt;&lt;div&gt;&lt;br&gt;&lt;/div&gt;" style="shape=umlActor;verticalLabelPosition=bottom;verticalAlign=top;html=1;outlineConnect=0;" vertex="1" parent="1">
          <mxGeometry x="1300" y="70" width="30" height="60" as="geometry" />
        </mxCell>
        <mxCell id="YSaP_0wxnB1doKRxfrzB-3" value="" style="ellipse;whiteSpace=wrap;html=1;" vertex="1" parent="1">
          <mxGeometry x="1460" y="40" width="120" height="80" as="geometry" />
        </mxCell>
      </root>
    </mxGraphModel>
  </diagram>
  <diagram id="_gKNq6qsAxsaUIvA9ZSx" name="Page-2">
    <mxGraphModel dx="1984" dy="1691" grid="1" gridSize="10" guides="1" tooltips="1" connect="1" arrows="1" fold="1" page="1" pageScale="1" pageWidth="850" pageHeight="1100" math="0" shadow="0">
      <root>
        <mxCell id="0" />
        <mxCell id="1" parent="0" />
        <mxCell id="uoSti3VBPtzdViVZeHju-1" value="ABSENSI" style="rounded=0;whiteSpace=wrap;html=1;" vertex="1" parent="1">
          <mxGeometry x="295" y="191.25" width="110" height="45" as="geometry" />
        </mxCell>
        <mxCell id="uoSti3VBPtzdViVZeHju-3" value="" style="endArrow=none;html=1;rounded=0;exitX=1;exitY=0.5;exitDx=0;exitDy=0;" edge="1" parent="1" source="uoSti3VBPtzdViVZeHju-1" target="uoSti3VBPtzdViVZeHju-4">
          <mxGeometry width="50" height="50" relative="1" as="geometry">
            <mxPoint x="390" y="270" as="sourcePoint" />
            <mxPoint x="640" y="220" as="targetPoint" />
          </mxGeometry>
        </mxCell>
        <mxCell id="uoSti3VBPtzdViVZeHju-4" value="Mengelola" style="rhombus;whiteSpace=wrap;html=1;" vertex="1" parent="1">
          <mxGeometry x="610" y="180" width="110" height="70" as="geometry" />
        </mxCell>
        <mxCell id="uoSti3VBPtzdViVZeHju-5" value="" style="endArrow=none;html=1;rounded=0;entryX=0.5;entryY=1;entryDx=0;entryDy=0;exitX=0.5;exitY=0;exitDx=0;exitDy=0;" edge="1" parent="1" source="uoSti3VBPtzdViVZeHju-6" target="uoSti3VBPtzdViVZeHju-4">
          <mxGeometry width="50" height="50" relative="1" as="geometry">
            <mxPoint x="665" y="410" as="sourcePoint" />
            <mxPoint x="440" y="350" as="targetPoint" />
          </mxGeometry>
        </mxCell>
        <mxCell id="uoSti3VBPtzdViVZeHju-6" value="ADMIN" style="rounded=0;whiteSpace=wrap;html=1;" vertex="1" parent="1">
          <mxGeometry x="612.5" y="425" width="105" height="50" as="geometry" />
        </mxCell>
        <mxCell id="uoSti3VBPtzdViVZeHju-9" value="" style="endArrow=none;html=1;rounded=0;exitX=0.5;exitY=0;exitDx=0;exitDy=0;" edge="1" parent="1" source="uoSti3VBPtzdViVZeHju-4" target="uoSti3VBPtzdViVZeHju-10">
          <mxGeometry width="50" height="50" relative="1" as="geometry">
            <mxPoint x="664.5" y="170" as="sourcePoint" />
            <mxPoint x="665" y="70" as="targetPoint" />
          </mxGeometry>
        </mxCell>
        <mxCell id="uoSti3VBPtzdViVZeHju-10" value="DATA" style="rounded=0;whiteSpace=wrap;html=1;" vertex="1" parent="1">
          <mxGeometry x="617.5" y="60" width="95" height="40" as="geometry" />
        </mxCell>
        <mxCell id="uoSti3VBPtzdViVZeHju-11" value="" style="endArrow=none;html=1;rounded=0;exitX=0.5;exitY=0;exitDx=0;exitDy=0;" edge="1" parent="1" source="uoSti3VBPtzdViVZeHju-10" target="uoSti3VBPtzdViVZeHju-12">
          <mxGeometry width="50" height="50" relative="1" as="geometry">
            <mxPoint x="650" y="100" as="sourcePoint" />
            <mxPoint x="610" y="-20" as="targetPoint" />
          </mxGeometry>
        </mxCell>
        <mxCell id="uoSti3VBPtzdViVZeHju-12" value="Pegawai" style="ellipse;whiteSpace=wrap;html=1;" vertex="1" parent="1">
          <mxGeometry x="537.5" y="-50" width="80" height="50" as="geometry" />
        </mxCell>
        <mxCell id="uoSti3VBPtzdViVZeHju-13" value="" style="endArrow=none;html=1;rounded=0;exitX=0.5;exitY=0;exitDx=0;exitDy=0;" edge="1" parent="1" target="uoSti3VBPtzdViVZeHju-14" source="uoSti3VBPtzdViVZeHju-10">
          <mxGeometry width="50" height="50" relative="1" as="geometry">
            <mxPoint x="680" y="30" as="sourcePoint" />
            <mxPoint x="697.5" y="-85" as="targetPoint" />
          </mxGeometry>
        </mxCell>
        <mxCell id="uoSti3VBPtzdViVZeHju-14" value="Admin" style="ellipse;whiteSpace=wrap;html=1;" vertex="1" parent="1">
          <mxGeometry x="625" y="-80" width="80" height="50" as="geometry" />
        </mxCell>
        <mxCell id="uoSti3VBPtzdViVZeHju-15" value="" style="endArrow=none;html=1;rounded=0;exitX=0.5;exitY=0;exitDx=0;exitDy=0;" edge="1" parent="1" target="uoSti3VBPtzdViVZeHju-16" source="uoSti3VBPtzdViVZeHju-10">
          <mxGeometry width="50" height="50" relative="1" as="geometry">
            <mxPoint x="832.5" y="60" as="sourcePoint" />
            <mxPoint x="777.5" y="-20" as="targetPoint" />
          </mxGeometry>
        </mxCell>
        <mxCell id="uoSti3VBPtzdViVZeHju-16" value="Jabaran" style="ellipse;whiteSpace=wrap;html=1;" vertex="1" parent="1">
          <mxGeometry x="712.5" y="-50" width="80" height="50" as="geometry" />
        </mxCell>
        <mxCell id="uoSti3VBPtzdViVZeHju-19" value="" style="endArrow=none;html=1;rounded=0;exitX=0.5;exitY=0;exitDx=0;exitDy=0;" edge="1" parent="1" target="uoSti3VBPtzdViVZeHju-20" source="uoSti3VBPtzdViVZeHju-1">
          <mxGeometry width="50" height="50" relative="1" as="geometry">
            <mxPoint x="350" y="160" as="sourcePoint" />
            <mxPoint x="295" y="80" as="targetPoint" />
          </mxGeometry>
        </mxCell>
        <mxCell id="uoSti3VBPtzdViVZeHju-20" value="NIP" style="ellipse;whiteSpace=wrap;html=1;" vertex="1" parent="1">
          <mxGeometry x="222.5" y="80" width="80" height="50" as="geometry" />
        </mxCell>
        <mxCell id="uoSti3VBPtzdViVZeHju-21" value="" style="endArrow=none;html=1;rounded=0;exitX=0.5;exitY=0;exitDx=0;exitDy=0;" edge="1" parent="1" target="uoSti3VBPtzdViVZeHju-22" source="uoSti3VBPtzdViVZeHju-1">
          <mxGeometry width="50" height="50" relative="1" as="geometry">
            <mxPoint x="360" y="140" as="sourcePoint" />
            <mxPoint x="382.5" y="15" as="targetPoint" />
          </mxGeometry>
        </mxCell>
        <mxCell id="uoSti3VBPtzdViVZeHju-22" value="Nama Pegawai" style="ellipse;whiteSpace=wrap;html=1;" vertex="1" parent="1">
          <mxGeometry x="310" y="80" width="80" height="50" as="geometry" />
        </mxCell>
        <mxCell id="uoSti3VBPtzdViVZeHju-23" value="" style="endArrow=none;html=1;rounded=0;exitX=0.5;exitY=0;exitDx=0;exitDy=0;" edge="1" parent="1" target="uoSti3VBPtzdViVZeHju-24" source="uoSti3VBPtzdViVZeHju-1">
          <mxGeometry width="50" height="50" relative="1" as="geometry">
            <mxPoint x="350" y="180" as="sourcePoint" />
            <mxPoint x="462.5" y="80" as="targetPoint" />
          </mxGeometry>
        </mxCell>
        <mxCell id="uoSti3VBPtzdViVZeHju-24" value="Waktu" style="ellipse;whiteSpace=wrap;html=1;" vertex="1" parent="1">
          <mxGeometry x="397.5" y="80" width="80" height="50" as="geometry" />
        </mxCell>
        <mxCell id="uoSti3VBPtzdViVZeHju-25" value="Mempunyai" style="rhombus;whiteSpace=wrap;html=1;" vertex="1" parent="1">
          <mxGeometry x="373" y="413.75" width="105" height="72.5" as="geometry" />
        </mxCell>
        <mxCell id="uoSti3VBPtzdViVZeHju-26" value="" style="endArrow=none;html=1;rounded=0;entryX=1;entryY=0.5;entryDx=0;entryDy=0;exitX=0;exitY=0.5;exitDx=0;exitDy=0;" edge="1" parent="1" source="uoSti3VBPtzdViVZeHju-6" target="uoSti3VBPtzdViVZeHju-25">
          <mxGeometry width="50" height="50" relative="1" as="geometry">
            <mxPoint x="675" y="430" as="sourcePoint" />
            <mxPoint x="675" y="270" as="targetPoint" />
          </mxGeometry>
        </mxCell>
        <mxCell id="uoSti3VBPtzdViVZeHju-27" value="" style="endArrow=none;html=1;rounded=0;exitX=0.5;exitY=1;exitDx=0;exitDy=0;" edge="1" parent="1" target="uoSti3VBPtzdViVZeHju-28" source="uoSti3VBPtzdViVZeHju-25">
          <mxGeometry width="50" height="50" relative="1" as="geometry">
            <mxPoint x="425.5" y="640" as="sourcePoint" />
            <mxPoint x="425.5" y="540" as="targetPoint" />
          </mxGeometry>
        </mxCell>
        <mxCell id="uoSti3VBPtzdViVZeHju-28" value="LAPORAN" style="rounded=0;whiteSpace=wrap;html=1;" vertex="1" parent="1">
          <mxGeometry x="384" y="530" width="82" height="30" as="geometry" />
        </mxCell>
        <mxCell id="uoSti3VBPtzdViVZeHju-29" value="" style="endArrow=none;html=1;rounded=0;entryX=0.5;entryY=1;entryDx=0;entryDy=0;exitX=0.5;exitY=0;exitDx=0;exitDy=0;" edge="1" parent="1" source="uoSti3VBPtzdViVZeHju-31" target="uoSti3VBPtzdViVZeHju-28">
          <mxGeometry width="50" height="50" relative="1" as="geometry">
            <mxPoint x="390" y="630" as="sourcePoint" />
            <mxPoint x="410" y="590" as="targetPoint" />
          </mxGeometry>
        </mxCell>
        <mxCell id="uoSti3VBPtzdViVZeHju-30" value="" style="endArrow=none;html=1;rounded=0;entryX=0.5;entryY=1;entryDx=0;entryDy=0;exitX=0.5;exitY=0;exitDx=0;exitDy=0;" edge="1" parent="1" source="uoSti3VBPtzdViVZeHju-32" target="uoSti3VBPtzdViVZeHju-28">
          <mxGeometry width="50" height="50" relative="1" as="geometry">
            <mxPoint x="460" y="630" as="sourcePoint" />
            <mxPoint x="435" y="570" as="targetPoint" />
          </mxGeometry>
        </mxCell>
        <mxCell id="uoSti3VBPtzdViVZeHju-31" value="Absensi" style="ellipse;whiteSpace=wrap;html=1;" vertex="1" parent="1">
          <mxGeometry x="312.5" y="620" width="85" height="50" as="geometry" />
        </mxCell>
        <mxCell id="uoSti3VBPtzdViVZeHju-32" value="Keterangan" style="ellipse;whiteSpace=wrap;html=1;" vertex="1" parent="1">
          <mxGeometry x="452.5" y="620" width="85" height="50" as="geometry" />
        </mxCell>
        <mxCell id="uoSti3VBPtzdViVZeHju-38" value="Mempunyai" style="rhombus;whiteSpace=wrap;html=1;" vertex="1" parent="1">
          <mxGeometry x="10" y="177.5" width="105" height="72.5" as="geometry" />
        </mxCell>
        <mxCell id="uoSti3VBPtzdViVZeHju-39" value="" style="endArrow=none;html=1;rounded=0;entryX=1;entryY=0.5;entryDx=0;entryDy=0;exitX=0;exitY=0.5;exitDx=0;exitDy=0;" edge="1" parent="1" target="uoSti3VBPtzdViVZeHju-38" source="uoSti3VBPtzdViVZeHju-1">
          <mxGeometry width="50" height="50" relative="1" as="geometry">
            <mxPoint x="272" y="286.25" as="sourcePoint" />
            <mxPoint x="342" y="106.25" as="targetPoint" />
          </mxGeometry>
        </mxCell>
        <mxCell id="uoSti3VBPtzdViVZeHju-40" value="" style="endArrow=none;html=1;rounded=0;exitX=0.5;exitY=1;exitDx=0;exitDy=0;entryX=0.5;entryY=0;entryDx=0;entryDy=0;" edge="1" parent="1" source="uoSti3VBPtzdViVZeHju-38" target="uoSti3VBPtzdViVZeHju-41">
          <mxGeometry width="50" height="50" relative="1" as="geometry">
            <mxPoint x="92.5" y="476.25" as="sourcePoint" />
            <mxPoint x="63" y="430" as="targetPoint" />
          </mxGeometry>
        </mxCell>
        <mxCell id="uoSti3VBPtzdViVZeHju-41" value="PEGAWAI" style="rounded=0;whiteSpace=wrap;html=1;" vertex="1" parent="1">
          <mxGeometry x="7.5" y="446.25" width="107.5" height="40" as="geometry" />
        </mxCell>
        <mxCell id="uoSti3VBPtzdViVZeHju-42" value="" style="endArrow=none;html=1;rounded=0;entryX=0.5;entryY=1;entryDx=0;entryDy=0;exitX=0.5;exitY=0;exitDx=0;exitDy=0;" edge="1" parent="1" source="uoSti3VBPtzdViVZeHju-44" target="uoSti3VBPtzdViVZeHju-41">
          <mxGeometry width="50" height="50" relative="1" as="geometry">
            <mxPoint x="47.5" y="620" as="sourcePoint" />
            <mxPoint x="82.5" y="550" as="targetPoint" />
          </mxGeometry>
        </mxCell>
        <mxCell id="uoSti3VBPtzdViVZeHju-43" value="" style="endArrow=none;html=1;rounded=0;entryX=0.5;entryY=1;entryDx=0;entryDy=0;exitX=1;exitY=0;exitDx=0;exitDy=0;" edge="1" parent="1" source="uoSti3VBPtzdViVZeHju-45" target="uoSti3VBPtzdViVZeHju-41">
          <mxGeometry width="50" height="50" relative="1" as="geometry">
            <mxPoint x="117.5" y="620" as="sourcePoint" />
            <mxPoint x="82.5" y="550" as="targetPoint" />
          </mxGeometry>
        </mxCell>
        <mxCell id="uoSti3VBPtzdViVZeHju-44" value="Username" style="ellipse;whiteSpace=wrap;html=1;" vertex="1" parent="1">
          <mxGeometry x="-90" y="560" width="70" height="40" as="geometry" />
        </mxCell>
        <mxCell id="uoSti3VBPtzdViVZeHju-45" value="Password" style="ellipse;whiteSpace=wrap;html=1;" vertex="1" parent="1">
          <mxGeometry x="-100" y="610" width="75" height="40" as="geometry" />
        </mxCell>
        <mxCell id="uoSti3VBPtzdViVZeHju-46" value="" style="endArrow=none;html=1;rounded=0;entryX=0.5;entryY=1;entryDx=0;entryDy=0;exitX=1;exitY=0.5;exitDx=0;exitDy=0;" edge="1" parent="1" source="uoSti3VBPtzdViVZeHju-48" target="uoSti3VBPtzdViVZeHju-41">
          <mxGeometry width="50" height="50" relative="1" as="geometry">
            <mxPoint x="-102.5" y="556.25" as="sourcePoint" />
            <mxPoint x="-67.5" y="486.25" as="targetPoint" />
          </mxGeometry>
        </mxCell>
        <mxCell id="uoSti3VBPtzdViVZeHju-47" value="" style="endArrow=none;html=1;rounded=0;entryX=0.5;entryY=1;entryDx=0;entryDy=0;exitX=1;exitY=0;exitDx=0;exitDy=0;" edge="1" parent="1" source="uoSti3VBPtzdViVZeHju-49" target="uoSti3VBPtzdViVZeHju-41">
          <mxGeometry width="50" height="50" relative="1" as="geometry">
            <mxPoint x="-32.5" y="556.25" as="sourcePoint" />
            <mxPoint x="-67.5" y="486.25" as="targetPoint" />
          </mxGeometry>
        </mxCell>
        <mxCell id="uoSti3VBPtzdViVZeHju-48" value="Alamat" style="ellipse;whiteSpace=wrap;html=1;" vertex="1" parent="1">
          <mxGeometry x="-190" y="510" width="70" height="40" as="geometry" />
        </mxCell>
        <mxCell id="uoSti3VBPtzdViVZeHju-49" value="NIP" style="ellipse;whiteSpace=wrap;html=1;" vertex="1" parent="1">
          <mxGeometry x="-170" y="560" width="70" height="40" as="geometry" />
        </mxCell>
        <mxCell id="uoSti3VBPtzdViVZeHju-50" value="" style="endArrow=none;html=1;rounded=0;exitX=0.5;exitY=0;exitDx=0;exitDy=0;entryX=0.5;entryY=1;entryDx=0;entryDy=0;" edge="1" parent="1" source="uoSti3VBPtzdViVZeHju-52" target="uoSti3VBPtzdViVZeHju-41">
          <mxGeometry width="50" height="50" relative="1" as="geometry">
            <mxPoint x="192.5" y="600" as="sourcePoint" />
            <mxPoint x="60" y="480" as="targetPoint" />
          </mxGeometry>
        </mxCell>
        <mxCell id="uoSti3VBPtzdViVZeHju-51" value="" style="endArrow=none;html=1;rounded=0;exitX=0.5;exitY=0;exitDx=0;exitDy=0;entryX=0.5;entryY=1;entryDx=0;entryDy=0;" edge="1" parent="1" source="uoSti3VBPtzdViVZeHju-53" target="uoSti3VBPtzdViVZeHju-41">
          <mxGeometry width="50" height="50" relative="1" as="geometry">
            <mxPoint x="262.5" y="600" as="sourcePoint" />
            <mxPoint x="170" y="500" as="targetPoint" />
          </mxGeometry>
        </mxCell>
        <mxCell id="uoSti3VBPtzdViVZeHju-52" value="Nama" style="ellipse;whiteSpace=wrap;html=1;" vertex="1" parent="1">
          <mxGeometry x="-20" y="612" width="70" height="40" as="geometry" />
        </mxCell>
        <mxCell id="uoSti3VBPtzdViVZeHju-53" value="Tmpt Tgl Lahir" style="ellipse;whiteSpace=wrap;html=1;" vertex="1" parent="1">
          <mxGeometry x="26.25" y="652" width="70" height="40" as="geometry" />
        </mxCell>
        <mxCell id="uoSti3VBPtzdViVZeHju-55" value="" style="endArrow=none;html=1;rounded=0;entryX=0.5;entryY=1;entryDx=0;entryDy=0;exitX=0.5;exitY=0;exitDx=0;exitDy=0;" edge="1" parent="1" source="uoSti3VBPtzdViVZeHju-57" target="uoSti3VBPtzdViVZeHju-41">
          <mxGeometry width="50" height="50" relative="1" as="geometry">
            <mxPoint x="287.5" y="662" as="sourcePoint" />
            <mxPoint x="301" y="528" as="targetPoint" />
          </mxGeometry>
        </mxCell>
        <mxCell id="uoSti3VBPtzdViVZeHju-56" value="" style="endArrow=none;html=1;rounded=0;entryX=0.5;entryY=1;entryDx=0;entryDy=0;exitX=0;exitY=0;exitDx=0;exitDy=0;" edge="1" parent="1" source="uoSti3VBPtzdViVZeHju-58" target="uoSti3VBPtzdViVZeHju-41">
          <mxGeometry width="50" height="50" relative="1" as="geometry">
            <mxPoint x="357.5" y="662" as="sourcePoint" />
            <mxPoint x="301" y="528" as="targetPoint" />
          </mxGeometry>
        </mxCell>
        <mxCell id="uoSti3VBPtzdViVZeHju-57" value="Agama" style="ellipse;whiteSpace=wrap;html=1;" vertex="1" parent="1">
          <mxGeometry x="162.5" y="560" width="70" height="40" as="geometry" />
        </mxCell>
        <mxCell id="uoSti3VBPtzdViVZeHju-58" value="Password" style="ellipse;whiteSpace=wrap;html=1;" vertex="1" parent="1">
          <mxGeometry x="160" y="610" width="75" height="40" as="geometry" />
        </mxCell>
        <mxCell id="uoSti3VBPtzdViVZeHju-59" value="" style="endArrow=none;html=1;rounded=0;entryX=0.5;entryY=1;entryDx=0;entryDy=0;exitX=0.5;exitY=0;exitDx=0;exitDy=0;" edge="1" parent="1" source="uoSti3VBPtzdViVZeHju-61" target="uoSti3VBPtzdViVZeHju-41">
          <mxGeometry width="50" height="50" relative="1" as="geometry">
            <mxPoint x="137.5" y="598.25" as="sourcePoint" />
            <mxPoint x="301" y="528" as="targetPoint" />
          </mxGeometry>
        </mxCell>
        <mxCell id="uoSti3VBPtzdViVZeHju-60" value="" style="endArrow=none;html=1;rounded=0;entryX=0.5;entryY=1;entryDx=0;entryDy=0;exitX=0.986;exitY=0.7;exitDx=0;exitDy=0;exitPerimeter=0;" edge="1" parent="1" source="uoSti3VBPtzdViVZeHju-62" target="uoSti3VBPtzdViVZeHju-41">
          <mxGeometry width="50" height="50" relative="1" as="geometry">
            <mxPoint x="207.5" y="598.25" as="sourcePoint" />
            <mxPoint x="301" y="528" as="targetPoint" />
          </mxGeometry>
        </mxCell>
        <mxCell id="uoSti3VBPtzdViVZeHju-61" value="JenKel" style="ellipse;whiteSpace=wrap;html=1;" vertex="1" parent="1">
          <mxGeometry x="80" y="612" width="70" height="40" as="geometry" />
        </mxCell>
        <mxCell id="uoSti3VBPtzdViVZeHju-62" value="Foto" style="ellipse;whiteSpace=wrap;html=1;" vertex="1" parent="1">
          <mxGeometry x="-200" y="460" width="70" height="40" as="geometry" />
        </mxCell>
        <mxCell id="uoSti3VBPtzdViVZeHju-63" value="" style="endArrow=none;html=1;rounded=0;exitX=0;exitY=0;exitDx=0;exitDy=0;entryX=0.5;entryY=1;entryDx=0;entryDy=0;" edge="1" parent="1" source="uoSti3VBPtzdViVZeHju-65" target="uoSti3VBPtzdViVZeHju-41">
          <mxGeometry width="50" height="50" relative="1" as="geometry">
            <mxPoint x="432.5" y="642" as="sourcePoint" />
            <mxPoint x="301" y="528" as="targetPoint" />
          </mxGeometry>
        </mxCell>
        <mxCell id="uoSti3VBPtzdViVZeHju-64" value="" style="endArrow=none;html=1;rounded=0;exitX=0;exitY=0.5;exitDx=0;exitDy=0;entryX=0.5;entryY=1;entryDx=0;entryDy=0;" edge="1" parent="1" source="uoSti3VBPtzdViVZeHju-66" target="uoSti3VBPtzdViVZeHju-41">
          <mxGeometry width="50" height="50" relative="1" as="geometry">
            <mxPoint x="502.5" y="642" as="sourcePoint" />
            <mxPoint x="301" y="528" as="targetPoint" />
          </mxGeometry>
        </mxCell>
        <mxCell id="uoSti3VBPtzdViVZeHju-65" value="No Tel" style="ellipse;whiteSpace=wrap;html=1;" vertex="1" parent="1">
          <mxGeometry x="242.5" y="560" width="70" height="40" as="geometry" />
        </mxCell>
        <mxCell id="uoSti3VBPtzdViVZeHju-66" value="Jabatan" style="ellipse;whiteSpace=wrap;html=1;" vertex="1" parent="1">
          <mxGeometry x="240" y="510" width="70" height="40" as="geometry" />
        </mxCell>
        <mxCell id="uoSti3VBPtzdViVZeHju-68" value="" style="endArrow=none;html=1;rounded=0;entryX=0.5;entryY=1;entryDx=0;entryDy=0;exitX=0.5;exitY=0;exitDx=0;exitDy=0;" edge="1" parent="1" source="uoSti3VBPtzdViVZeHju-70" target="uoSti3VBPtzdViVZeHju-6">
          <mxGeometry width="50" height="50" relative="1" as="geometry">
            <mxPoint x="657.5" y="590" as="sourcePoint" />
            <mxPoint x="692.5" y="520" as="targetPoint" />
          </mxGeometry>
        </mxCell>
        <mxCell id="uoSti3VBPtzdViVZeHju-69" value="" style="endArrow=none;html=1;rounded=0;entryX=0.5;entryY=1;entryDx=0;entryDy=0;exitX=0.5;exitY=0;exitDx=0;exitDy=0;" edge="1" parent="1" source="uoSti3VBPtzdViVZeHju-71" target="uoSti3VBPtzdViVZeHju-6">
          <mxGeometry width="50" height="50" relative="1" as="geometry">
            <mxPoint x="727.5" y="590" as="sourcePoint" />
            <mxPoint x="692.5" y="520" as="targetPoint" />
          </mxGeometry>
        </mxCell>
        <mxCell id="uoSti3VBPtzdViVZeHju-70" value="Username" style="ellipse;whiteSpace=wrap;html=1;" vertex="1" parent="1">
          <mxGeometry x="580" y="580" width="85" height="50" as="geometry" />
        </mxCell>
        <mxCell id="uoSti3VBPtzdViVZeHju-71" value="Password" style="ellipse;whiteSpace=wrap;html=1;" vertex="1" parent="1">
          <mxGeometry x="680" y="580" width="85" height="50" as="geometry" />
        </mxCell>
      </root>
    </mxGraphModel>
  </diagram>
</mxfile>
